<?xml version="1.0" encoding="UTF-8"?>
<svg xmlns="http://www.w3.org/2000/svg" xmlns:xlink="http://www.w3.org/1999/xlink" viewBox="0 0 14 14">
  <defs>
    <style>
      .cls-1 {
        fill: url(#linear-gradient);
      }

      .cls-2 {
        isolation: isolate;
      }

      .cls-2, .cls-3 {
        fill: none;
      }

      .cls-4 {
        fill: #4d6d86;
      }

      .cls-3 {
        mix-blend-mode: screen;
        opacity: .24;
      }
    </style>
    <linearGradient id="linear-gradient" x1="7" y1="14" x2="7" y2="0" gradientUnits="userSpaceOnUse">
      <stop offset="0" stop-color="#fff"/>
      <stop offset=".06" stop-color="#dbdada"/>
      <stop offset=".16" stop-color="#9a9898"/>
      <stop offset=".26" stop-color="#666464"/>
      <stop offset=".35" stop-color="#413e3f"/>
      <stop offset=".42" stop-color="#2b2728"/>
      <stop offset=".46" stop-color="#231f20"/>
    </linearGradient>
  </defs>
  <g class="cls-2">
    <g id="Layer_1" data-name="Layer 1">
      <path class="cls-4" d="m.55,4.25c.37-.85.86-1.59,1.49-2.22.63-.63,1.37-1.12,2.22-1.49.85-.37,1.76-.55,2.73-.55s1.88.18,2.73.55c.85.37,1.59.86,2.24,1.49.64.63,1.14,1.37,1.51,2.22.37.85.55,1.76.55,2.73s-.18,1.88-.55,2.73c-.37.85-.87,1.6-1.51,2.24-.64.64-1.39,1.14-2.24,1.51-.85.37-1.76.55-2.73.55s-1.88-.18-2.73-.55c-.85-.37-1.59-.87-2.22-1.51-.63-.64-1.12-1.39-1.49-2.24-.37-.85-.55-1.76-.55-2.73s.18-1.88.55-2.73Z"/>
      <g class="cls-3">
        <path class="cls-1" d="m.55,4.25c.37-.85.86-1.59,1.49-2.22.63-.63,1.37-1.12,2.22-1.49.85-.37,1.76-.55,2.73-.55s1.88.18,2.73.55c.85.37,1.59.86,2.24,1.49.64.63,1.14,1.37,1.51,2.22.37.85.55,1.76.55,2.73s-.18,1.88-.55,2.73c-.37.85-.87,1.6-1.51,2.24-.64.64-1.39,1.14-2.24,1.51-.85.37-1.76.55-2.73.55s-1.88-.18-2.73-.55c-.85-.37-1.59-.87-2.22-1.51-.63-.64-1.12-1.39-1.49-2.24-.37-.85-.55-1.76-.55-2.73s.18-1.88.55-2.73Z"/>
      </g>
    </g>
  </g>
</svg>